<svg width="36" height="51" viewBox="0 0 36 51" fill="none" xmlns="http://www.w3.org/2000/svg">
<path d="M31.2669 48.9511C31.2939 49.3946 31.2848 49.8125 31.2475 50.1927L31.2669 48.9511C31.0303 45.0588 28.019 39.201 17.0008 39.6133C4.72726 40.0726 1.80632 30.755 1.88004 26.0388C1.9964 21.6377 5.50828 12.8089 17.0998 13.8162C27.5322 14.7227 31.5409 7.31536 31.9782 3.53221L31.9956 2.42171C32.0313 2.73621 32.0268 3.11183 31.9782 3.53221L31.2669 48.9511Z" fill="white"/>
<path d="M14 30.1352L19.5628 26.6927L14 23.2502L15.7126 22.1927L23 26.6927L15.7126 31.1927L14 30.1352Z" fill="#BDC5D4"/>
</svg>
