<svg width="83" height="59" viewBox="0 0 83 59" fill="none" xmlns="http://www.w3.org/2000/svg">
<path d="M31.2669 56.7532C31.2939 57.2673 31.2848 57.7519 31.2475 58.1927L31.2669 56.7532C31.0303 52.2405 28.019 45.4491 17.0008 45.9271C4.72726 46.4596 1.80632 35.6569 1.88004 30.189C1.9964 25.0864 5.50828 14.8505 17.0998 16.0182C27.5322 17.0692 31.5409 8.4813 31.9782 4.09517L31.9956 2.80766C32.0313 3.17229 32.0268 3.60779 31.9782 4.09517L31.2669 56.7532Z" fill="white"/>
<path d="M14 34.9384L19.5628 30.9472L14 26.956L15.7126 25.73L23 30.9472L15.7126 36.1644L14 34.9384Z" fill="#BDC5D4"/>
<rect x="31" y="5.79694" width="52" height="51.013" fill="white"/>
</svg>
